<svg width="32" height="32" viewBox="0 0 32 32" xmlns="http://www.w3.org/2000/svg">
  <!-- Background circle with soft gradient -->
  <defs>
    <linearGradient id="bgGradient" x1="0%" y1="0%" x2="100%" y2="100%">
      <stop offset="0%" style="stop-color:#1e3a8a;stop-opacity:1" />
      <stop offset="100%" style="stop-color:#1e40af;stop-opacity:1" />
    </linearGradient>
    <linearGradient id="bookGradient" x1="0%" y1="0%" x2="100%" y2="100%">
      <stop offset="0%" style="stop-color:#fbbf24;stop-opacity:1" />
      <stop offset="100%" style="stop-color:#f59e0b;stop-opacity:1" />
    </linearGradient>
    <filter id="glow">
      <feGaussianBlur stdDeviation="1" result="coloredBlur"/>
      <feMerge> 
        <feMergeNode in="coloredBlur"/>
        <feMergeNode in="SourceGraphic"/>
      </feMerge>
    </filter>
  </defs>
  
  <!-- Background -->
  <circle cx="16" cy="16" r="16" fill="url(#bgGradient)"/>
  
  <!-- Open book pages (white) -->
  <path d="M8 10 L16 8 L24 10 L24 22 L16 24 L8 22 Z" fill="white" opacity="0.95"/>
  
  <!-- Book spine and binding -->
  <path d="M8 10 L16 8 L16 24 L8 22 Z" fill="url(#bookGradient)"/>
  
  <!-- Text lines on pages -->
  <line x1="12" y1="12" x2="22" y2="12" stroke="#1e3a8a" stroke-width="0.8" opacity="0.6"/>
  <line x1="12" y1="14" x2="20" y2="14" stroke="#1e3a8a" stroke-width="0.8" opacity="0.4"/>
  <line x1="12" y1="16" x2="22" y2="16" stroke="#1e3a8a" stroke-width="0.8" opacity="0.6"/>
  <line x1="12" y1="18" x2="18" y2="18" stroke="#1e3a8a" stroke-width="0.8" opacity="0.4"/>
  <line x1="12" y1="20" x2="22" y2="20" stroke="#1e3a8a" stroke-width="0.8" opacity="0.6"/>
  
  <!-- Subtle credit card overlay (bottom right corner) -->
  <rect x="20" y="20" width="8" height="5" rx="1" fill="white" opacity="0.2"/>
  <rect x="21" y="21" width="6" height="1" fill="#1e3a8a" opacity="0.3"/>
  <rect x="21" y="23" width="4" height="0.5" fill="#1e3a8a" opacity="0.3"/>
  <rect x="21" y="24" width="5" height="0.5" fill="#1e3a8a" opacity="0.3"/>
  
  <!-- Digital glow accent -->
  <circle cx="26" cy="26" r="2" fill="#fbbf24" opacity="0.6" filter="url(#glow)"/>
</svg>
